<svg width="1600" height="125" viewBox="0 0 1600 125" fill="none" xmlns="http://www.w3.org/2000/svg">
<g filter="url(#filter0_d_2_7535)">
<path d="M1168.45 41V14.8182H1184.15V17.6307H1171.62V26.4773H1182.97V29.2898H1171.62V41H1168.45ZM1188.96 41V21.3636H1191.87V24.3295H1192.08C1192.44 23.358 1193.08 22.5696 1194.02 21.9645C1194.96 21.3594 1196.01 21.0568 1197.19 21.0568C1197.41 21.0568 1197.69 21.0611 1198.02 21.0696C1198.35 21.0781 1198.61 21.0909 1198.78 21.108V24.1761C1198.67 24.1506 1198.44 24.1122 1198.07 24.0611C1197.72 24.0014 1197.34 23.9716 1196.94 23.9716C1195.98 23.9716 1195.13 24.1719 1194.38 24.5724C1193.64 24.9645 1193.05 25.5099 1192.61 26.2088C1192.19 26.8991 1191.98 27.6875 1191.98 28.5739V41H1188.96ZM1202.35 41V21.3636H1205.37V41H1202.35ZM1203.89 18.0909C1203.3 18.0909 1202.79 17.8906 1202.37 17.4901C1201.95 17.0895 1201.74 16.608 1201.74 16.0455C1201.74 15.483 1201.95 15.0014 1202.37 14.6009C1202.79 14.2003 1203.3 14 1203.89 14C1204.47 14 1204.98 14.2003 1205.4 14.6009C1205.82 15.0014 1206.03 15.483 1206.03 16.0455C1206.03 16.608 1205.82 17.0895 1205.4 17.4901C1204.98 17.8906 1204.47 18.0909 1203.89 18.0909ZM1218.31 41.4091C1216.67 41.4091 1215.23 40.9957 1213.98 40.169C1212.72 39.3338 1211.74 38.1577 1211.04 36.6406C1210.33 35.1151 1209.98 33.3125 1209.98 31.233C1209.98 29.1705 1210.33 27.3807 1211.04 25.8636C1211.74 24.3466 1212.73 23.1747 1213.99 22.348C1215.25 21.5213 1216.71 21.108 1218.36 21.108C1219.64 21.108 1220.65 21.321 1221.39 21.7472C1222.14 22.1648 1222.71 22.642 1223.1 23.179C1223.51 23.7074 1223.82 24.142 1224.04 24.483H1224.29V14.8182H1227.31V41H1224.4V37.983H1224.04C1223.82 38.3409 1223.5 38.7926 1223.09 39.3381C1222.68 39.875 1222.1 40.3565 1221.34 40.7827C1220.58 41.2003 1219.57 41.4091 1218.31 41.4091ZM1218.72 38.6989C1219.93 38.6989 1220.95 38.3835 1221.79 37.7528C1222.62 37.1136 1223.26 36.2315 1223.69 35.1065C1224.13 33.973 1224.34 32.6648 1224.34 31.1818C1224.34 29.7159 1224.13 28.4332 1223.71 27.3338C1223.28 26.2259 1222.65 25.3651 1221.81 24.7514C1220.98 24.1293 1219.95 23.8182 1218.72 23.8182C1217.44 23.8182 1216.38 24.1463 1215.52 24.8026C1214.68 25.4503 1214.04 26.3324 1213.62 27.4489C1213.2 28.5568 1212.99 29.8011 1212.99 31.1818C1212.99 32.5795 1213.21 33.8494 1213.63 34.9915C1214.07 36.125 1214.71 37.0284 1215.55 37.7017C1216.4 38.3665 1217.46 38.6989 1218.72 38.6989ZM1239.03 41.4602C1237.79 41.4602 1236.66 41.2259 1235.65 40.7571C1234.63 40.2798 1233.83 39.5938 1233.23 38.6989C1232.63 37.7955 1232.33 36.7045 1232.33 35.4261C1232.33 34.3011 1232.56 33.3892 1233 32.6903C1233.44 31.983 1234.03 31.429 1234.78 31.0284C1235.52 30.6278 1236.34 30.3295 1237.23 30.1335C1238.13 29.929 1239.04 29.767 1239.95 29.6477C1241.15 29.4943 1242.11 29.3793 1242.86 29.3026C1243.61 29.2173 1244.15 29.0767 1244.49 28.8807C1244.84 28.6847 1245.02 28.3437 1245.02 27.858V27.7557C1245.02 26.4943 1244.67 25.5142 1243.98 24.8153C1243.3 24.1165 1242.26 23.767 1240.87 23.767C1239.43 23.767 1238.3 24.0824 1237.49 24.7131C1236.67 25.3437 1236.09 26.017 1235.76 26.733L1232.9 25.7102C1233.41 24.517 1234.09 23.5881 1234.94 22.9233C1235.8 22.25 1236.74 21.7812 1237.76 21.517C1238.78 21.2443 1239.78 21.108 1240.77 21.108C1241.4 21.108 1242.13 21.1847 1242.95 21.3381C1243.77 21.483 1244.57 21.7855 1245.34 22.2457C1246.11 22.706 1246.76 23.4006 1247.27 24.3295C1247.78 25.2585 1248.03 26.5028 1248.03 28.0625V41H1245.02V38.3409H1244.86C1244.66 38.767 1244.32 39.223 1243.84 39.7088C1243.36 40.1946 1242.73 40.608 1241.94 40.9489C1241.14 41.2898 1240.18 41.4602 1239.03 41.4602ZM1239.49 38.75C1240.69 38.75 1241.69 38.5156 1242.51 38.0469C1243.34 37.5781 1243.96 36.973 1244.38 36.2315C1244.8 35.4901 1245.02 34.7102 1245.02 33.892V31.1307C1244.89 31.2841 1244.61 31.4247 1244.17 31.5526C1243.75 31.6719 1243.25 31.7784 1242.69 31.8722C1242.14 31.9574 1241.59 32.0341 1241.07 32.1023C1240.55 32.1619 1240.12 32.2131 1239.8 32.2557C1239.02 32.358 1238.28 32.5241 1237.6 32.7543C1236.93 32.9759 1236.38 33.3125 1235.97 33.7642C1235.56 34.2074 1235.35 34.8125 1235.35 35.5795C1235.35 36.6278 1235.74 37.4205 1236.51 37.9574C1237.3 38.4858 1238.29 38.75 1239.49 38.75ZM1254.78 48.3636C1254.27 48.3636 1253.81 48.321 1253.41 48.2358C1253.01 48.1591 1252.73 48.0824 1252.58 48.0057L1253.35 45.3466C1254.08 45.5341 1254.73 45.6023 1255.29 45.5511C1255.85 45.5 1256.35 45.2486 1256.79 44.7969C1257.23 44.3537 1257.64 43.6335 1258 42.6364L1258.56 41.1023L1251.3 21.3636H1254.58L1260 37.0114H1260.2L1265.62 21.3636H1268.89L1260.56 43.8636C1260.18 44.8778 1259.72 45.7173 1259.17 46.3821C1258.61 47.0554 1257.97 47.554 1257.23 47.8778C1256.51 48.2017 1255.69 48.3636 1254.78 48.3636ZM1292.15 14.8182V41H1288.98V18.142H1288.83L1282.44 22.3864V19.1648L1288.98 14.8182H1292.15ZM1308.89 14.8182V41H1305.72V18.142H1305.57L1299.17 22.3864V19.1648L1305.72 14.8182H1308.89ZM1325.01 21.3636V23.9205H1314.83V21.3636H1325.01ZM1317.8 16.6591H1320.82V35.375C1320.82 36.2273 1320.94 36.8665 1321.19 37.2926C1321.44 37.7102 1321.77 37.9915 1322.16 38.1364C1322.56 38.2727 1322.98 38.3409 1323.42 38.3409C1323.76 38.3409 1324.03 38.3239 1324.24 38.2898C1324.46 38.2472 1324.63 38.2131 1324.75 38.1875L1325.37 40.8977C1325.16 40.9744 1324.88 41.0511 1324.51 41.1278C1324.14 41.2131 1323.68 41.2557 1323.12 41.2557C1322.27 41.2557 1321.43 41.0724 1320.61 40.706C1319.8 40.3395 1319.13 39.7812 1318.59 39.0312C1318.06 38.2812 1317.8 37.3352 1317.8 36.1932V16.6591ZM1332.99 29.1875V41H1329.97V14.8182H1332.99V24.4318H1333.24C1333.7 23.4176 1334.39 22.6122 1335.31 22.0156C1336.24 21.4105 1337.48 21.108 1339.02 21.108C1340.36 21.108 1341.53 21.3764 1342.54 21.9134C1343.54 22.4418 1344.32 23.2557 1344.88 24.3551C1345.44 25.446 1345.72 26.8352 1345.72 28.5227V41H1342.7V28.7273C1342.7 27.1676 1342.3 25.9616 1341.49 25.1094C1340.69 24.2486 1339.57 23.8182 1338.15 23.8182C1337.16 23.8182 1336.28 24.027 1335.49 24.4446C1334.72 24.8622 1334.1 25.4716 1333.65 26.2727C1333.21 27.0739 1332.99 28.0455 1332.99 29.1875ZM1383.86 27.9091C1383.86 30.6705 1383.37 33.0568 1382.37 35.0682C1381.37 37.0795 1380 38.6307 1378.26 39.7216C1376.53 40.8125 1374.54 41.358 1372.31 41.358C1370.07 41.358 1368.09 40.8125 1366.35 39.7216C1364.61 38.6307 1363.24 37.0795 1362.25 35.0682C1361.25 33.0568 1360.75 30.6705 1360.75 27.9091C1360.75 25.1477 1361.25 22.7614 1362.25 20.75C1363.24 18.7386 1364.61 17.1875 1366.35 16.0966C1368.09 15.0057 1370.07 14.4602 1372.31 14.4602C1374.54 14.4602 1376.53 15.0057 1378.26 16.0966C1380 17.1875 1381.37 18.7386 1382.37 20.75C1383.37 22.7614 1383.86 25.1477 1383.86 27.9091ZM1380.8 27.9091C1380.8 25.642 1380.42 23.7287 1379.66 22.169C1378.91 20.6094 1377.89 19.429 1376.6 18.6278C1375.32 17.8267 1373.89 17.4261 1372.31 17.4261C1370.72 17.4261 1369.29 17.8267 1368 18.6278C1366.72 19.429 1365.7 20.6094 1364.94 22.169C1364.19 23.7287 1363.82 25.642 1363.82 27.9091C1363.82 30.1761 1364.19 32.0895 1364.94 33.6491C1365.7 35.2088 1366.72 36.3892 1368 37.1903C1369.29 37.9915 1370.72 38.392 1372.31 38.392C1373.89 38.392 1375.32 37.9915 1376.6 37.1903C1377.89 36.3892 1378.91 35.2088 1379.66 33.6491C1380.42 32.0895 1380.8 30.1761 1380.8 27.9091ZM1396.76 41.4091C1394.92 41.4091 1393.34 40.9744 1392.01 40.1051C1390.68 39.2358 1389.66 38.0384 1388.94 36.5128C1388.22 34.9872 1387.87 33.2443 1387.87 31.2841C1387.87 29.2898 1388.23 27.5298 1388.97 26.0043C1389.71 24.4702 1390.74 23.2727 1392.06 22.4119C1393.39 21.5426 1394.94 21.108 1396.71 21.108C1398.09 21.108 1399.34 21.3636 1400.45 21.875C1401.55 22.3864 1402.46 23.1023 1403.17 24.0227C1403.88 24.9432 1404.31 26.017 1404.49 27.2443H1401.47C1401.24 26.3494 1400.73 25.5568 1399.93 24.8665C1399.15 24.1676 1398.09 23.8182 1396.76 23.8182C1395.59 23.8182 1394.56 24.125 1393.67 24.7386C1392.79 25.3437 1392.11 26.2003 1391.61 27.3082C1391.13 28.4077 1390.88 29.6989 1390.88 31.1818C1390.88 32.6989 1391.12 34.0199 1391.6 35.1449C1392.08 36.2699 1392.77 37.1435 1393.64 37.7656C1394.53 38.3878 1395.57 38.6989 1396.76 38.6989C1397.55 38.6989 1398.26 38.5625 1398.9 38.2898C1399.54 38.017 1400.08 37.625 1400.52 37.1136C1400.97 36.6023 1401.28 35.9886 1401.47 35.2727H1404.49C1404.31 36.4318 1403.89 37.4759 1403.22 38.4048C1402.55 39.3253 1401.67 40.0582 1400.57 40.6037C1399.48 41.1406 1398.21 41.4091 1396.76 41.4091ZM1417.44 21.3636V23.9205H1407.26V21.3636H1417.44ZM1410.23 16.6591H1413.24V35.375C1413.24 36.2273 1413.37 36.8665 1413.61 37.2926C1413.87 37.7102 1414.19 37.9915 1414.58 38.1364C1414.99 38.2727 1415.41 38.3409 1415.85 38.3409C1416.18 38.3409 1416.46 38.3239 1416.67 38.2898C1416.88 38.2472 1417.05 38.2131 1417.18 38.1875L1417.79 40.8977C1417.59 40.9744 1417.3 41.0511 1416.94 41.1278C1416.57 41.2131 1416.11 41.2557 1415.54 41.2557C1414.69 41.2557 1413.86 41.0724 1413.04 40.706C1412.23 40.3395 1411.55 39.7812 1411.02 39.0312C1410.49 38.2812 1410.23 37.3352 1410.23 36.1932V16.6591ZM1429.74 41.4091C1427.97 41.4091 1426.41 40.9872 1425.07 40.1435C1423.74 39.2997 1422.7 38.1193 1421.95 36.6023C1421.21 35.0852 1420.84 33.3125 1420.84 31.2841C1420.84 29.2386 1421.21 27.4531 1421.95 25.9276C1422.7 24.402 1423.74 23.2173 1425.07 22.3736C1426.41 21.5298 1427.97 21.108 1429.74 21.108C1431.51 21.108 1433.06 21.5298 1434.39 22.3736C1435.73 23.2173 1436.77 24.402 1437.51 25.9276C1438.26 27.4531 1438.64 29.2386 1438.64 31.2841C1438.64 33.3125 1438.26 35.0852 1437.51 36.6023C1436.77 38.1193 1435.73 39.2997 1434.39 40.1435C1433.06 40.9872 1431.51 41.4091 1429.74 41.4091ZM1429.74 38.6989C1431.09 38.6989 1432.19 38.3537 1433.06 37.6634C1433.93 36.973 1434.58 36.0653 1434.99 34.9403C1435.41 33.8153 1435.62 32.5966 1435.62 31.2841C1435.62 29.9716 1435.41 28.7486 1434.99 27.6151C1434.58 26.4815 1433.93 25.5653 1433.06 24.8665C1432.19 24.1676 1431.09 23.8182 1429.74 23.8182C1428.39 23.8182 1427.29 24.1676 1426.42 24.8665C1425.55 25.5653 1424.9 26.4815 1424.49 27.6151C1424.07 28.7486 1423.86 29.9716 1423.86 31.2841C1423.86 32.5966 1424.07 33.8153 1424.49 34.9403C1424.9 36.0653 1425.55 36.973 1426.42 37.6634C1427.29 38.3537 1428.39 38.6989 1429.74 38.6989ZM1443.65 41V14.8182H1446.67V24.483H1446.93C1447.15 24.142 1447.45 23.7074 1447.85 23.179C1448.25 22.642 1448.82 22.1648 1449.56 21.7472C1450.31 21.321 1451.32 21.108 1452.6 21.108C1454.25 21.108 1455.71 21.5213 1456.97 22.348C1458.23 23.1747 1459.22 24.3466 1459.93 25.8636C1460.63 27.3807 1460.99 29.1705 1460.99 31.233C1460.99 33.3125 1460.63 35.1151 1459.93 36.6406C1459.22 38.1577 1458.24 39.3338 1456.99 40.169C1455.73 40.9957 1454.29 41.4091 1452.65 41.4091C1451.39 41.4091 1450.38 41.2003 1449.62 40.7827C1448.86 40.3565 1448.28 39.875 1447.87 39.3381C1447.46 38.7926 1447.15 38.3409 1446.93 37.983H1446.57V41H1443.65ZM1446.62 31.1818C1446.62 32.6648 1446.84 33.973 1447.27 35.1065C1447.7 36.2315 1448.34 37.1136 1449.18 37.7528C1450.01 38.3835 1451.03 38.6989 1452.24 38.6989C1453.5 38.6989 1454.56 38.3665 1455.4 37.7017C1456.25 37.0284 1456.89 36.125 1457.32 34.9915C1457.75 33.8494 1457.97 32.5795 1457.97 31.1818C1457.97 29.8011 1457.76 28.5568 1457.33 27.4489C1456.91 26.3324 1456.28 25.4503 1455.43 24.8026C1454.58 24.1463 1453.52 23.8182 1452.24 23.8182C1451.02 23.8182 1449.98 24.1293 1449.15 24.7514C1448.31 25.3651 1447.68 26.2259 1447.26 27.3338C1446.83 28.4332 1446.62 29.7159 1446.62 31.1818ZM1473.84 41.4091C1471.94 41.4091 1470.31 40.9915 1468.94 40.1562C1467.58 39.3125 1466.52 38.1364 1465.78 36.6278C1465.05 35.1108 1464.68 33.3466 1464.68 31.3352C1464.68 29.3239 1465.05 27.5511 1465.78 26.017C1466.52 24.4744 1467.55 23.2727 1468.88 22.4119C1470.2 21.5426 1471.76 21.108 1473.53 21.108C1474.55 21.108 1475.56 21.2784 1476.56 21.6193C1477.56 21.9602 1478.46 22.5142 1479.28 23.2812C1480.1 24.0398 1480.75 25.0455 1481.24 26.2983C1481.72 27.5511 1481.97 29.0937 1481.97 30.9261V32.2045H1466.83V29.5966H1478.9C1478.9 28.4886 1478.68 27.5 1478.23 26.6307C1477.8 25.7614 1477.18 25.0753 1476.37 24.5724C1475.57 24.0696 1474.62 23.8182 1473.53 23.8182C1472.33 23.8182 1471.29 24.1165 1470.41 24.7131C1469.54 25.3011 1468.87 26.0682 1468.4 27.0142C1467.93 27.9602 1467.7 28.9744 1467.7 30.0568V31.7955C1467.7 33.2784 1467.95 34.5355 1468.47 35.5668C1468.99 36.5895 1469.71 37.3693 1470.63 37.9062C1471.55 38.4347 1472.62 38.6989 1473.84 38.6989C1474.63 38.6989 1475.34 38.5881 1475.98 38.3665C1476.63 38.1364 1477.19 37.7955 1477.66 37.3438C1478.13 36.8835 1478.49 36.3125 1478.74 35.6307L1481.66 36.4489C1481.35 37.4375 1480.84 38.3068 1480.11 39.0568C1479.39 39.7983 1478.49 40.3778 1477.43 40.7955C1476.36 41.2045 1475.17 41.4091 1473.84 41.4091ZM1486.56 41V21.3636H1489.47V24.3295H1489.68C1490.03 23.358 1490.68 22.5696 1491.62 21.9645C1492.56 21.3594 1493.61 21.0568 1494.79 21.0568C1495.01 21.0568 1495.29 21.0611 1495.62 21.0696C1495.95 21.0781 1496.2 21.0909 1496.37 21.108V24.1761C1496.27 24.1506 1496.04 24.1122 1495.67 24.0611C1495.31 24.0014 1494.93 23.9716 1494.53 23.9716C1493.58 23.9716 1492.73 24.1719 1491.98 24.5724C1491.23 24.9645 1490.65 25.5099 1490.21 26.2088C1489.79 26.8991 1489.57 27.6875 1489.57 28.5739V41H1486.56ZM1510.02 41V38.6989L1518.67 29.2386C1519.68 28.1307 1520.52 27.1676 1521.17 26.3494C1521.83 25.5227 1522.31 24.7472 1522.63 24.0227C1522.95 23.2898 1523.12 22.5227 1523.12 21.7216C1523.12 20.8011 1522.89 20.0043 1522.45 19.331C1522.02 18.6577 1521.42 18.1378 1520.66 17.7713C1519.9 17.4048 1519.05 17.2216 1518.1 17.2216C1517.1 17.2216 1516.22 17.4304 1515.47 17.848C1514.73 18.2571 1514.15 18.8324 1513.74 19.5739C1513.34 20.3153 1513.14 21.1847 1513.14 22.1818H1510.13C1510.13 20.6477 1510.48 19.3011 1511.19 18.142C1511.89 16.983 1512.86 16.0795 1514.08 15.4318C1515.3 14.7841 1516.68 14.4602 1518.21 14.4602C1519.74 14.4602 1521.1 14.7841 1522.28 15.4318C1523.47 16.0795 1524.4 16.9531 1525.07 18.0526C1525.74 19.152 1526.08 20.375 1526.08 21.7216C1526.08 22.6847 1525.91 23.6264 1525.56 24.5469C1525.22 25.4588 1524.62 26.4773 1523.77 27.6023C1522.92 28.7187 1521.75 30.0824 1520.25 31.6932L1514.37 37.983V38.1875H1526.54V41H1510.02ZM1540.36 41.358C1538.43 41.358 1536.79 40.8338 1535.44 39.7855C1534.08 38.7287 1533.05 37.1989 1532.33 35.196C1531.62 33.1847 1531.26 30.7557 1531.26 27.9091C1531.26 25.0795 1531.62 22.6634 1532.33 20.6605C1533.06 18.6491 1534.1 17.1151 1535.45 16.0582C1536.82 14.9929 1538.45 14.4602 1540.36 14.4602C1542.27 14.4602 1543.9 14.9929 1545.26 16.0582C1546.62 17.1151 1547.66 18.6491 1548.38 20.6605C1549.1 22.6634 1549.46 25.0795 1549.46 27.9091C1549.46 30.7557 1549.11 33.1847 1548.39 35.196C1547.67 37.1989 1546.64 38.7287 1545.28 39.7855C1543.93 40.8338 1542.29 41.358 1540.36 41.358ZM1540.36 38.5455C1542.27 38.5455 1543.75 37.625 1544.81 35.7841C1545.87 33.9432 1546.39 31.3182 1546.39 27.9091C1546.39 25.642 1546.15 23.7116 1545.67 22.1179C1545.19 20.5241 1544.5 19.3097 1543.6 18.4744C1542.7 17.6392 1541.62 17.2216 1540.36 17.2216C1538.47 17.2216 1536.99 18.1548 1535.92 20.0213C1534.86 21.8793 1534.33 24.5085 1534.33 27.9091C1534.33 30.1761 1534.57 32.1023 1535.04 33.6875C1535.52 35.2727 1536.21 36.4787 1537.1 37.3054C1538 38.1321 1539.09 38.5455 1540.36 38.5455ZM1554.32 41V38.6989L1562.96 29.2386C1563.98 28.1307 1564.81 27.1676 1565.47 26.3494C1566.13 25.5227 1566.61 24.7472 1566.93 24.0227C1567.25 23.2898 1567.41 22.5227 1567.41 21.7216C1567.41 20.8011 1567.19 20.0043 1566.75 19.331C1566.31 18.6577 1565.72 18.1378 1564.96 17.7713C1564.2 17.4048 1563.35 17.2216 1562.4 17.2216C1561.39 17.2216 1560.52 17.4304 1559.77 17.848C1559.03 18.2571 1558.45 18.8324 1558.04 19.5739C1557.64 20.3153 1557.44 21.1847 1557.44 22.1818H1554.42C1554.42 20.6477 1554.78 19.3011 1555.48 18.142C1556.19 16.983 1557.15 16.0795 1558.37 15.4318C1559.6 14.7841 1560.98 14.4602 1562.5 14.4602C1564.04 14.4602 1565.4 14.7841 1566.58 15.4318C1567.77 16.0795 1568.69 16.9531 1569.37 18.0526C1570.04 19.152 1570.38 20.375 1570.38 21.7216C1570.38 22.6847 1570.2 23.6264 1569.85 24.5469C1569.51 25.4588 1568.92 26.4773 1568.06 27.6023C1567.22 28.7187 1566.05 30.0824 1564.55 31.6932L1558.67 37.983V38.1875H1570.84V41H1554.32ZM1574.94 35.6307V33.0227L1586.45 14.8182H1588.34V18.858H1587.06L1578.37 32.6136V32.8182H1593.86V35.6307H1574.94ZM1587.27 41V34.8381V33.6236V14.8182H1590.28V41H1587.27ZM1177.19 69.8182V96H1174.02V73.142H1173.87L1167.48 77.3864V74.1648L1174.02 69.8182H1177.19ZM1193.57 96.358C1191.88 96.358 1190.38 96.0682 1189.06 95.4886C1187.74 94.9091 1186.7 94.1037 1185.93 93.0724C1185.16 92.0327 1184.74 90.8267 1184.67 89.4545H1187.89C1187.96 90.2983 1188.25 91.027 1188.76 91.6406C1189.27 92.2457 1189.94 92.7145 1190.77 93.0469C1191.6 93.3793 1192.51 93.5455 1193.52 93.5455C1194.64 93.5455 1195.64 93.3494 1196.51 92.9574C1197.38 92.5653 1198.06 92.0199 1198.56 91.321C1199.05 90.6222 1199.3 89.8125 1199.3 88.892C1199.3 87.929 1199.06 87.081 1198.58 86.348C1198.1 85.6065 1197.41 85.027 1196.48 84.6094C1195.56 84.1918 1194.44 83.983 1193.11 83.983H1191.01V81.1705H1193.11C1194.15 81.1705 1195.06 80.983 1195.85 80.608C1196.64 80.233 1197.26 79.7045 1197.7 79.0227C1198.15 78.3409 1198.38 77.5398 1198.38 76.6193C1198.38 75.733 1198.18 74.9616 1197.79 74.3054C1197.4 73.6491 1196.84 73.1378 1196.13 72.7713C1195.42 72.4048 1194.58 72.2216 1193.62 72.2216C1192.72 72.2216 1191.87 72.3878 1191.06 72.7202C1190.27 73.044 1189.62 73.517 1189.12 74.1392C1188.62 74.7528 1188.35 75.4943 1188.3 76.3636H1185.23C1185.29 74.9915 1185.7 73.7898 1186.47 72.7585C1187.25 71.7187 1188.26 70.9091 1189.52 70.3295C1190.78 69.75 1192.16 69.4602 1193.67 69.4602C1195.29 69.4602 1196.68 69.7884 1197.84 70.4446C1199 71.0923 1199.89 71.9489 1200.51 73.0142C1201.13 74.0795 1201.45 75.2301 1201.45 76.4659C1201.45 77.9403 1201.06 79.1974 1200.28 80.2372C1199.51 81.277 1198.47 81.9972 1197.15 82.3977V82.6023C1198.8 82.875 1200.09 83.5781 1201.02 84.7116C1201.95 85.8366 1202.42 87.2301 1202.42 88.892C1202.42 90.3153 1202.03 91.5938 1201.25 92.7273C1200.49 93.8523 1199.44 94.7386 1198.11 95.3864C1196.78 96.0341 1195.27 96.358 1193.57 96.358ZM1209.9 92.6506C1209.26 92.6506 1208.72 92.4247 1208.27 91.973C1207.82 91.5213 1207.59 90.9801 1207.59 90.3494C1207.59 89.7187 1207.82 89.1776 1208.27 88.7259C1208.72 88.2741 1209.26 88.0483 1209.9 88.0483C1210.53 88.0483 1211.07 88.2741 1211.52 88.7259C1211.97 89.1776 1212.2 89.7187 1212.2 90.3494C1212.2 90.767 1212.09 91.1506 1211.88 91.5C1211.67 91.8494 1211.4 92.1307 1211.05 92.3438C1210.7 92.5483 1210.32 92.6506 1209.9 92.6506ZM1209.9 79.4062C1209.26 79.4062 1208.72 79.1804 1208.27 78.7287C1207.82 78.277 1207.59 77.7358 1207.59 77.1051C1207.59 76.4744 1207.82 75.9332 1208.27 75.4815C1208.72 75.0298 1209.26 74.804 1209.9 74.804C1210.53 74.804 1211.07 75.0298 1211.52 75.4815C1211.97 75.9332 1212.2 76.4744 1212.2 77.1051C1212.2 77.5227 1212.09 77.9062 1211.88 78.2557C1211.67 78.6051 1211.4 78.8864 1211.05 79.0994C1210.7 79.304 1210.32 79.4062 1209.9 79.4062ZM1226.41 96.358C1224.72 96.358 1223.21 96.0682 1221.89 95.4886C1220.58 94.9091 1219.54 94.1037 1218.76 93.0724C1217.99 92.0327 1217.58 90.8267 1217.51 89.4545H1220.73C1220.8 90.2983 1221.09 91.027 1221.6 91.6406C1222.11 92.2457 1222.78 92.7145 1223.61 93.0469C1224.43 93.3793 1225.35 93.5455 1226.35 93.5455C1227.48 93.5455 1228.48 93.3494 1229.35 92.9574C1230.22 92.5653 1230.9 92.0199 1231.39 91.321C1231.89 90.6222 1232.13 89.8125 1232.13 88.892C1232.13 87.929 1231.89 87.081 1231.42 86.348C1230.94 85.6065 1230.24 85.027 1229.32 84.6094C1228.4 84.1918 1227.28 83.983 1225.95 83.983H1223.85V81.1705H1225.95C1226.99 81.1705 1227.9 80.983 1228.68 80.608C1229.47 80.233 1230.09 79.7045 1230.54 79.0227C1230.99 78.3409 1231.21 77.5398 1231.21 76.6193C1231.21 75.733 1231.02 74.9616 1230.62 74.3054C1230.23 73.6491 1229.68 73.1378 1228.96 72.7713C1228.26 72.4048 1227.42 72.2216 1226.46 72.2216C1225.55 72.2216 1224.7 72.3878 1223.9 72.7202C1223.11 73.044 1222.46 73.517 1221.96 74.1392C1221.45 74.7528 1221.18 75.4943 1221.14 76.3636H1218.07C1218.12 74.9915 1218.54 73.7898 1219.31 72.7585C1220.09 71.7187 1221.1 70.9091 1222.35 70.3295C1223.61 69.75 1225 69.4602 1226.51 69.4602C1228.13 69.4602 1229.52 69.7884 1230.68 70.4446C1231.83 71.0923 1232.73 71.9489 1233.35 73.0142C1233.97 74.0795 1234.28 75.2301 1234.28 76.4659C1234.28 77.9403 1233.89 79.1974 1233.12 80.2372C1232.35 81.277 1231.31 81.9972 1229.99 82.3977V82.6023C1231.64 82.875 1232.93 83.5781 1233.86 84.7116C1234.79 85.8366 1235.25 87.2301 1235.25 88.892C1235.25 90.3153 1234.86 91.5938 1234.09 92.7273C1233.32 93.8523 1232.27 94.7386 1230.94 95.3864C1229.61 96.0341 1228.1 96.358 1226.41 96.358ZM1249.02 96.358C1247.09 96.358 1245.45 95.8338 1244.1 94.7855C1242.74 93.7287 1241.71 92.1989 1240.99 90.196C1240.28 88.1847 1239.92 85.7557 1239.92 82.9091C1239.92 80.0795 1240.28 77.6634 1240.99 75.6605C1241.72 73.6491 1242.76 72.1151 1244.11 71.0582C1245.48 69.9929 1247.11 69.4602 1249.02 69.4602C1250.93 69.4602 1252.56 69.9929 1253.92 71.0582C1255.28 72.1151 1256.32 73.6491 1257.04 75.6605C1257.76 77.6634 1258.12 80.0795 1258.12 82.9091C1258.12 85.7557 1257.77 88.1847 1257.05 90.196C1256.33 92.1989 1255.3 93.7287 1253.94 94.7855C1252.59 95.8338 1250.95 96.358 1249.02 96.358ZM1249.02 93.5455C1250.93 93.5455 1252.41 92.625 1253.47 90.7841C1254.53 88.9432 1255.06 86.3182 1255.06 82.9091C1255.06 80.642 1254.81 78.7116 1254.33 77.1179C1253.85 75.5241 1253.16 74.3097 1252.26 73.4744C1251.36 72.6392 1250.28 72.2216 1249.02 72.2216C1247.13 72.2216 1245.65 73.1548 1244.58 75.0213C1243.52 76.8793 1242.99 79.5085 1242.99 82.9091C1242.99 85.1761 1243.23 87.1023 1243.7 88.6875C1244.18 90.2727 1244.87 91.4787 1245.76 92.3054C1246.66 93.1321 1247.75 93.5455 1249.02 93.5455ZM1273.57 96V69.8182H1282.41C1284.47 69.8182 1286.15 70.1889 1287.45 70.9304C1288.76 71.6634 1289.73 72.6562 1290.36 73.9091C1291 75.1619 1291.31 76.5597 1291.31 78.1023C1291.31 79.6449 1291 81.0469 1290.36 82.3082C1289.74 83.5696 1288.78 84.5753 1287.48 85.3253C1286.17 86.0668 1284.5 86.4375 1282.46 86.4375H1276.12V83.625H1282.36C1283.77 83.625 1284.9 83.3821 1285.75 82.8963C1286.6 82.4105 1287.22 81.7543 1287.6 80.9276C1288 80.0923 1288.19 79.1506 1288.19 78.1023C1288.19 77.054 1288 76.1165 1287.6 75.2898C1287.22 74.4631 1286.6 73.8153 1285.74 73.3466C1284.88 72.8693 1283.73 72.6307 1282.31 72.6307H1276.74V96H1273.57ZM1296.42 69.8182H1300.2L1309.1 91.5511H1309.41L1318.3 69.8182H1322.09V96H1319.12V76.108H1318.87L1310.69 96H1307.82L1299.64 76.108H1299.38V96H1296.42V69.8182ZM1346.7 76.3636V78.9205H1336.52V76.3636H1346.7ZM1339.49 71.6591H1342.51V90.375C1342.51 91.2273 1342.63 91.8665 1342.88 92.2926C1343.13 92.7102 1343.46 92.9915 1343.85 93.1364C1344.25 93.2727 1344.67 93.3409 1345.12 93.3409C1345.45 93.3409 1345.72 93.3239 1345.93 93.2898C1346.15 93.2472 1346.32 93.2131 1346.45 93.1875L1347.06 95.8977C1346.85 95.9744 1346.57 96.0511 1346.2 96.1278C1345.84 96.2131 1345.37 96.2557 1344.81 96.2557C1343.96 96.2557 1343.12 96.0724 1342.3 95.706C1341.49 95.3395 1340.82 94.7812 1340.28 94.0312C1339.76 93.2812 1339.49 92.3352 1339.49 91.1932V71.6591ZM1359.01 96.4091C1357.23 96.4091 1355.68 95.9872 1354.34 95.1435C1353.01 94.2997 1351.97 93.1193 1351.22 91.6023C1350.48 90.0852 1350.11 88.3125 1350.11 86.2841C1350.11 84.2386 1350.48 82.4531 1351.22 80.9276C1351.97 79.402 1353.01 78.2173 1354.34 77.3736C1355.68 76.5298 1357.23 76.108 1359.01 76.108C1360.78 76.108 1362.33 76.5298 1363.66 77.3736C1365 78.2173 1366.04 79.402 1366.78 80.9276C1367.53 82.4531 1367.9 84.2386 1367.9 86.2841C1367.9 88.3125 1367.53 90.0852 1366.78 91.6023C1366.04 93.1193 1365 94.2997 1363.66 95.1435C1362.33 95.9872 1360.78 96.4091 1359.01 96.4091ZM1359.01 93.6989C1360.35 93.6989 1361.46 93.3537 1362.33 92.6634C1363.2 91.973 1363.84 91.0653 1364.26 89.9403C1364.68 88.8153 1364.89 87.5966 1364.89 86.2841C1364.89 84.9716 1364.68 83.7486 1364.26 82.6151C1363.84 81.4815 1363.2 80.5653 1362.33 79.8665C1361.46 79.1676 1360.35 78.8182 1359.01 78.8182C1357.66 78.8182 1356.55 79.1676 1355.68 79.8665C1354.81 80.5653 1354.17 81.4815 1353.75 82.6151C1353.33 83.7486 1353.13 84.9716 1353.13 86.2841C1353.13 87.5966 1353.33 88.8153 1353.75 89.9403C1354.17 91.0653 1354.81 91.973 1355.68 92.6634C1356.55 93.3537 1357.66 93.6989 1359.01 93.6989ZM1391.79 69.8182V96H1388.62V73.142H1388.46L1382.07 77.3864V74.1648L1388.62 69.8182H1391.79ZM1408.01 96.358C1406.94 96.3409 1405.86 96.1364 1404.79 95.7443C1403.71 95.3523 1402.73 94.6918 1401.85 93.7628C1400.96 92.8253 1400.25 91.5597 1399.71 89.9659C1399.18 88.3636 1398.91 86.3523 1398.91 83.9318C1398.91 81.6136 1399.13 79.5597 1399.56 77.7699C1399.99 75.9716 1400.63 74.4588 1401.45 73.2315C1402.28 71.9957 1403.28 71.0582 1404.44 70.419C1405.62 69.7798 1406.95 69.4602 1408.42 69.4602C1409.89 69.4602 1411.19 69.7543 1412.33 70.3423C1413.48 70.9219 1414.42 71.7315 1415.14 72.7713C1415.87 73.8111 1416.34 75.0085 1416.55 76.3636H1413.43C1413.14 75.1875 1412.58 74.2116 1411.74 73.4361C1410.91 72.6605 1409.8 72.2727 1408.42 72.2727C1406.39 72.2727 1404.79 73.1548 1403.63 74.919C1402.47 76.6832 1401.88 79.1591 1401.87 82.3466H1402.08C1402.56 81.6222 1403.12 81.0043 1403.78 80.4929C1404.44 79.973 1405.18 79.5724 1405.98 79.2912C1406.78 79.0099 1407.63 78.8693 1408.52 78.8693C1410.02 78.8693 1411.39 79.2443 1412.64 79.9943C1413.88 80.7358 1414.88 81.7628 1415.63 83.0753C1416.38 84.3793 1416.75 85.875 1416.75 87.5625C1416.75 89.1818 1416.39 90.6648 1415.67 92.0114C1414.94 93.3494 1413.93 94.4148 1412.61 95.2074C1411.31 95.9915 1409.77 96.375 1408.01 96.358ZM1408.01 93.5455C1409.08 93.5455 1410.05 93.277 1410.9 92.7401C1411.76 92.2031 1412.44 91.483 1412.93 90.5795C1413.44 89.6761 1413.69 88.6705 1413.69 87.5625C1413.69 86.4801 1413.44 85.4957 1412.96 84.6094C1412.48 83.7145 1411.82 83.0028 1410.98 82.4744C1410.14 81.946 1409.19 81.6818 1408.11 81.6818C1407.3 81.6818 1406.55 81.8437 1405.85 82.1676C1405.15 82.483 1404.54 82.9176 1404.01 83.4716C1403.49 84.0256 1403.08 84.6605 1402.78 85.3764C1402.48 86.0838 1402.33 86.8295 1402.33 87.6136C1402.33 88.6534 1402.58 89.625 1403.06 90.5284C1403.56 91.4318 1404.23 92.1605 1405.08 92.7145C1405.94 93.2685 1406.92 93.5455 1408.01 93.5455ZM1424.03 92.6506C1423.4 92.6506 1422.86 92.4247 1422.41 91.973C1421.96 91.5213 1421.73 90.9801 1421.73 90.3494C1421.73 89.7187 1421.96 89.1776 1422.41 88.7259C1422.86 88.2741 1423.4 88.0483 1424.03 88.0483C1424.66 88.0483 1425.2 88.2741 1425.66 88.7259C1426.11 89.1776 1426.33 89.7187 1426.33 90.3494C1426.33 90.767 1426.23 91.1506 1426.01 91.5C1425.81 91.8494 1425.53 92.1307 1425.18 92.3438C1424.84 92.5483 1424.46 92.6506 1424.03 92.6506ZM1424.03 79.4062C1423.4 79.4062 1422.86 79.1804 1422.41 78.7287C1421.96 78.277 1421.73 77.7358 1421.73 77.1051C1421.73 76.4744 1421.96 75.9332 1422.41 75.4815C1422.86 75.0298 1423.4 74.804 1424.03 74.804C1424.66 74.804 1425.2 75.0298 1425.66 75.4815C1426.11 75.9332 1426.33 76.4744 1426.33 77.1051C1426.33 77.5227 1426.23 77.9062 1426.01 78.2557C1425.81 78.6051 1425.53 78.8864 1425.18 79.0994C1424.84 79.304 1424.46 79.4062 1424.03 79.4062ZM1440.54 96.358C1438.86 96.358 1437.35 96.0682 1436.03 95.4886C1434.72 94.9091 1433.67 94.1037 1432.9 93.0724C1432.13 92.0327 1431.71 90.8267 1431.64 89.4545H1434.87C1434.93 90.2983 1435.22 91.027 1435.74 91.6406C1436.25 92.2457 1436.92 92.7145 1437.74 93.0469C1438.57 93.3793 1439.49 93.5455 1440.49 93.5455C1441.62 93.5455 1442.61 93.3494 1443.48 92.9574C1444.35 92.5653 1445.03 92.0199 1445.53 91.321C1446.02 90.6222 1446.27 89.8125 1446.27 88.892C1446.27 87.929 1446.03 87.081 1445.55 86.348C1445.08 85.6065 1444.38 85.027 1443.46 84.6094C1442.54 84.1918 1441.41 83.983 1440.08 83.983H1437.99V81.1705H1440.08C1441.12 81.1705 1442.03 80.983 1442.82 80.608C1443.61 80.233 1444.23 79.7045 1444.67 79.0227C1445.12 78.3409 1445.35 77.5398 1445.35 76.6193C1445.35 75.733 1445.15 74.9616 1444.76 74.3054C1444.37 73.6491 1443.82 73.1378 1443.1 72.7713C1442.39 72.4048 1441.56 72.2216 1440.59 72.2216C1439.69 72.2216 1438.84 72.3878 1438.04 72.7202C1437.24 73.044 1436.6 73.517 1436.09 74.1392C1435.59 74.7528 1435.32 75.4943 1435.28 76.3636H1432.21C1432.26 74.9915 1432.67 73.7898 1433.45 72.7585C1434.22 71.7187 1435.24 70.9091 1436.49 70.3295C1437.75 69.75 1439.14 69.4602 1440.64 69.4602C1442.26 69.4602 1443.65 69.7884 1444.81 70.4446C1445.97 71.0923 1446.86 71.9489 1447.48 73.0142C1448.11 74.0795 1448.42 75.2301 1448.42 76.4659C1448.42 77.9403 1448.03 79.1974 1447.25 80.2372C1446.49 81.277 1445.44 81.9972 1444.12 82.3977V82.6023C1445.78 82.875 1447.07 83.5781 1448 84.7116C1448.92 85.8366 1449.39 87.2301 1449.39 88.892C1449.39 90.3153 1449 91.5938 1448.23 92.7273C1447.46 93.8523 1446.41 94.7386 1445.08 95.3864C1443.75 96.0341 1442.24 96.358 1440.54 96.358ZM1463.16 96.358C1461.23 96.358 1459.59 95.8338 1458.24 94.7855C1456.88 93.7287 1455.85 92.1989 1455.13 90.196C1454.41 88.1847 1454.06 85.7557 1454.06 82.9091C1454.06 80.0795 1454.41 77.6634 1455.13 75.6605C1455.85 73.6491 1456.89 72.1151 1458.25 71.0582C1459.61 69.9929 1461.25 69.4602 1463.16 69.4602C1465.07 69.4602 1466.7 69.9929 1468.05 71.0582C1469.42 72.1151 1470.46 73.6491 1471.17 75.6605C1471.9 77.6634 1472.26 80.0795 1472.26 82.9091C1472.26 85.7557 1471.9 88.1847 1471.19 90.196C1470.47 92.1989 1469.43 93.7287 1468.08 94.7855C1466.72 95.8338 1465.08 96.358 1463.16 96.358ZM1463.16 93.5455C1465.07 93.5455 1466.55 92.625 1467.61 90.7841C1468.66 88.9432 1469.19 86.3182 1469.19 82.9091C1469.19 80.642 1468.95 78.7116 1468.46 77.1179C1467.99 75.5241 1467.3 74.3097 1466.39 73.4744C1465.5 72.6392 1464.42 72.2216 1463.16 72.2216C1461.27 72.2216 1459.79 73.1548 1458.72 75.0213C1457.66 76.8793 1457.12 79.5085 1457.12 82.9091C1457.12 85.1761 1457.36 87.1023 1457.84 88.6875C1458.32 90.2727 1459 91.4787 1459.9 92.3054C1460.8 93.1321 1461.89 93.5455 1463.16 93.5455ZM1487.7 96V69.8182H1496.55C1498.6 69.8182 1500.28 70.1889 1501.59 70.9304C1502.9 71.6634 1503.87 72.6562 1504.5 73.9091C1505.13 75.1619 1505.45 76.5597 1505.45 78.1023C1505.45 79.6449 1505.13 81.0469 1504.5 82.3082C1503.88 83.5696 1502.92 84.5753 1501.61 85.3253C1500.31 86.0668 1498.64 86.4375 1496.6 86.4375H1490.26V83.625H1496.5C1497.9 83.625 1499.03 83.3821 1499.89 82.8963C1500.74 82.4105 1501.36 81.7543 1501.74 80.9276C1502.13 80.0923 1502.33 79.1506 1502.33 78.1023C1502.33 77.054 1502.13 76.1165 1501.74 75.2898C1501.36 74.4631 1500.73 73.8153 1499.87 73.3466C1499.01 72.8693 1497.87 72.6307 1496.45 72.6307H1490.87V96H1487.7ZM1510.55 69.8182H1514.34L1523.24 91.5511H1523.54L1532.44 69.8182H1536.23V96H1533.26V76.108H1533L1524.82 96H1521.96L1513.78 76.108H1513.52V96H1510.55V69.8182Z" fill="#F5F5F5"/>
</g>
<circle cx="1079.62" cy="57.2884" r="49.7826" fill="#EE6F22"/>
<path d="M1094.66 55.5638C1085.55 55.5638 1078.14 62.9782 1078.14 72.0918C1078.14 81.2053 1085.55 88.6198 1094.66 88.6198C1103.78 88.6198 1111.19 81.2053 1111.19 72.0918C1111.19 62.9782 1103.78 55.5638 1094.66 55.5638ZM1094.66 83.7226C1088.25 83.7226 1083.03 78.505 1083.03 72.0918C1083.03 65.6786 1088.25 60.461 1094.66 60.461C1101.08 60.461 1106.3 65.6786 1106.3 72.0918C1106.3 78.505 1101.08 83.7226 1094.66 83.7226ZM1096.99 69.6432H1101.15V74.5404H1092.09V63.889H1096.99V69.6432ZM1103.85 30.833H1100.91V25.9358H1096.01V30.833H1063.69V25.9358H1058.79V30.833H1055.85C1051.8 30.833 1048.51 34.1283 1048.51 38.1788V81.274C1048.51 85.3245 1051.8 88.6198 1055.85 88.6198H1072.14H1072.5H1081.05C1079.35 87.2224 1077.88 85.57 1076.68 83.7226H1072.5H1072.14H1055.85C1054.5 83.7226 1053.41 82.6242 1053.41 81.274V48.9526H1106.3V53.8498V54.0946V54.1067C1108.14 55.3054 1109.79 56.7801 1111.19 58.4729V54.0946V53.8498V38.1788C1111.19 34.1283 1107.9 30.833 1103.85 30.833ZM1053.41 44.0554V38.1788C1053.41 36.8286 1054.5 35.7302 1055.85 35.7302H1058.79V40.6274H1063.69V35.7302H1096.01V40.6274H1100.91V35.7302H1103.85C1105.2 35.7302 1106.3 36.8286 1106.3 38.1788V44.0554H1053.41ZM1062.71 58.9918H1057.81V54.0946H1062.71V58.9918ZM1072.5 58.9918H1067.61V54.0946H1072.5V58.9918ZM1082.3 54.0946V58.9918H1077.4V54.0946H1082.3ZM1062.71 68.7862H1057.81V63.889H1062.71V68.7862ZM1072.5 68.7862H1067.61V63.889H1072.5V68.7862ZM1057.81 73.6834H1062.71V78.5806H1057.81V73.6834ZM1067.61 73.6834H1072.5V78.5806H1067.61V73.6834Z" fill="#F5F5F5"/>
<path d="M159.965 36.321H156.97C156.793 35.4598 156.483 34.7031 156.041 34.0512C155.606 33.3992 155.075 32.8518 154.447 32.4091C153.827 31.9584 153.139 31.6203 152.382 31.3949C151.626 31.1695 150.837 31.0568 150.016 31.0568C148.519 31.0568 147.162 31.4352 145.947 32.1918C144.739 32.9484 143.778 34.0632 143.061 35.5362C142.353 37.0093 141.999 38.8163 141.999 40.9574C141.999 43.0985 142.353 44.9056 143.061 46.3786C143.778 47.8516 144.739 48.9664 145.947 49.723C147.162 50.4797 148.519 50.858 150.016 50.858C150.837 50.858 151.626 50.7453 152.382 50.5199C153.139 50.2945 153.827 49.9605 154.447 49.5178C155.075 49.067 155.606 48.5156 156.041 47.8637C156.483 47.2036 156.793 46.447 156.97 45.5938H159.965C159.739 46.8575 159.329 47.9884 158.733 48.9865C158.137 49.9846 157.397 50.8338 156.511 51.5341C155.626 52.2263 154.632 52.7536 153.529 53.1158C152.434 53.478 151.263 53.6591 150.016 53.6591C147.907 53.6591 146.031 53.144 144.389 52.1137C142.747 51.0834 141.455 49.6184 140.514 47.7188C139.572 45.8192 139.101 43.5654 139.101 40.9574C139.101 38.3495 139.572 36.0957 140.514 34.196C141.455 32.2964 142.747 30.8315 144.389 29.8012C146.031 28.7709 147.907 28.2557 150.016 28.2557C151.263 28.2557 152.434 28.4368 153.529 28.799C154.632 29.1612 155.626 29.6925 156.511 30.3928C157.397 31.085 158.137 31.9302 158.733 32.9283C159.329 33.9183 159.739 35.0493 159.965 36.321ZM164.417 53.321V34.7756H167.17V37.5767H167.363C167.701 36.6591 168.313 35.9146 169.198 35.3431C170.083 34.7716 171.082 34.4858 172.192 34.4858C172.402 34.4858 172.663 34.4898 172.977 34.4979C173.291 34.5059 173.529 34.518 173.69 34.5341V37.4318C173.593 37.4077 173.372 37.3715 173.025 37.3232C172.687 37.2668 172.329 37.2387 171.951 37.2387C171.049 37.2387 170.244 37.4278 169.536 37.8061C168.836 38.1764 168.28 38.6915 167.87 39.3516C167.467 40.0036 167.266 40.7481 167.266 41.5852V53.321H164.417ZM184.037 53.7074C182.363 53.7074 180.894 53.309 179.63 52.5121C178.374 51.7152 177.392 50.6004 176.684 49.1676C175.984 47.7349 175.633 46.0606 175.633 44.1449C175.633 42.2131 175.984 40.5268 176.684 39.086C177.392 37.6451 178.374 36.5263 179.63 35.7294C180.894 34.9326 182.363 34.5341 184.037 34.5341C185.711 34.5341 187.176 34.9326 188.432 35.7294C189.695 36.5263 190.677 37.6451 191.378 39.086C192.086 40.5268 192.44 42.2131 192.44 44.1449C192.44 46.0606 192.086 47.7349 191.378 49.1676C190.677 50.6004 189.695 51.7152 188.432 52.5121C187.176 53.309 185.711 53.7074 184.037 53.7074ZM184.037 51.1477C185.309 51.1477 186.355 50.8218 187.176 50.1698C187.997 49.5178 188.605 48.6605 188.999 47.598C189.394 46.5355 189.591 45.3845 189.591 44.1449C189.591 42.9053 189.394 41.7503 188.999 40.6797C188.605 39.6092 187.997 38.7439 187.176 38.0838C186.355 37.4238 185.309 37.0938 184.037 37.0938C182.765 37.0938 181.719 37.4238 180.898 38.0838C180.077 38.7439 179.469 39.6092 179.074 40.6797C178.68 41.7503 178.483 42.9053 178.483 44.1449C178.483 45.3845 178.68 46.5355 179.074 47.598C179.469 48.6605 180.077 49.5178 180.898 50.1698C181.719 50.8218 182.765 51.1477 184.037 51.1477ZM200.361 53.321L194.71 34.7756H197.704L201.713 48.9745H201.906L205.866 34.7756H208.909L212.821 48.9262H213.014L217.023 34.7756H220.017L214.366 53.321H211.565L207.508 39.0739H207.219L203.162 53.321H200.361ZM226.633 42.1648V53.321H223.784V34.7756H226.537V37.6733H226.778C227.213 36.7316 227.873 35.9749 228.758 35.4034C229.644 34.8239 230.787 34.5341 232.187 34.5341C233.443 34.5341 234.542 34.7917 235.484 35.3068C236.425 35.8139 237.158 36.5867 237.681 37.625C238.204 38.6553 238.466 39.9593 238.466 41.537V53.321H235.616V41.7301C235.616 40.2732 235.238 39.1383 234.481 38.3253C233.725 37.5043 232.686 37.0938 231.366 37.0938C230.457 37.0938 229.644 37.291 228.927 37.6854C228.219 38.0798 227.66 38.6553 227.249 39.412C226.839 40.1686 226.633 41.0862 226.633 42.1648ZM253.622 53.321V28.5938H261.977C263.916 28.5938 265.502 28.9439 266.734 29.6442C267.973 30.3364 268.891 31.2742 269.487 32.4574C270.082 33.6406 270.38 34.9607 270.38 36.4176C270.38 37.8745 270.082 39.1986 269.487 40.3899C268.899 41.5812 267.989 42.531 266.758 43.2394C265.526 43.9397 263.949 44.2898 262.025 44.2898H256.036V41.6335H261.928C263.256 41.6335 264.323 41.4041 265.128 40.9453C265.933 40.4865 266.516 39.8667 266.879 39.086C267.249 38.2971 267.434 37.4077 267.434 36.4176C267.434 35.4276 267.249 34.5422 266.879 33.7614C266.516 32.9806 265.929 32.3689 265.116 31.9262C264.303 31.4754 263.224 31.25 261.88 31.25H256.616V53.321H253.622ZM277.667 28.5938V53.321H274.817V28.5938H277.667ZM288.343 53.7557C287.168 53.7557 286.101 53.5343 285.143 53.0916C284.185 52.6409 283.425 51.9929 282.861 51.1477C282.298 50.2945 282.016 49.2642 282.016 48.0568C282.016 46.9943 282.226 46.1331 282.644 45.473C283.063 44.8049 283.622 44.2817 284.322 43.9034C285.023 43.5251 285.795 43.2434 286.641 43.0583C287.494 42.8651 288.351 42.7121 289.212 42.5995C290.339 42.4546 291.253 42.3459 291.953 42.2735C292.661 42.193 293.176 42.0602 293.498 41.875C293.828 41.6899 293.993 41.3679 293.993 40.9091V40.8125C293.993 39.6212 293.668 38.6956 293.016 38.0355C292.372 37.3755 291.394 37.0455 290.082 37.0455C288.721 37.0455 287.655 37.3433 286.882 37.9389C286.109 38.5346 285.566 39.1705 285.252 39.8466L282.547 38.8807C283.03 37.7538 283.674 36.8764 284.479 36.2486C285.292 35.6127 286.178 35.17 287.136 34.9205C288.101 34.6629 289.051 34.5341 289.985 34.5341C290.581 34.5341 291.265 34.6066 292.038 34.7514C292.818 34.8883 293.571 35.174 294.295 35.6087C295.028 36.0433 295.636 36.6994 296.118 37.5767C296.601 38.4541 296.843 39.6293 296.843 41.1023V53.321H293.993V50.8097H293.849C293.655 51.2121 293.333 51.6428 292.883 52.1016C292.432 52.5604 291.832 52.9508 291.084 53.2727C290.335 53.5947 289.422 53.7557 288.343 53.7557ZM288.778 51.196C289.904 51.196 290.854 50.9747 291.627 50.532C292.408 50.0893 292.995 49.5178 293.39 48.8175C293.792 48.1172 293.993 47.3807 293.993 46.608V44C293.873 44.1449 293.607 44.2777 293.197 44.3985C292.794 44.5111 292.327 44.6118 291.796 44.7003C291.273 44.7808 290.762 44.8532 290.263 44.9176C289.772 44.974 289.373 45.0223 289.067 45.0625C288.327 45.1591 287.635 45.3161 286.991 45.5334C286.355 45.7427 285.84 46.0606 285.445 46.4872C285.059 46.9058 284.866 47.4773 284.866 48.2017C284.866 49.1918 285.232 49.9404 285.964 50.4475C286.705 50.9465 287.643 51.196 288.778 51.196ZM301.512 53.321V51.1477L312.041 37.625V37.4318H301.851V34.7756H315.711V37.0455L305.473 50.4716V50.6648H316.049V53.321H301.512ZM325.896 53.7557C324.72 53.7557 323.654 53.5343 322.696 53.0916C321.738 52.6409 320.978 51.9929 320.414 51.1477C319.851 50.2945 319.569 49.2642 319.569 48.0568C319.569 46.9943 319.778 46.1331 320.197 45.473C320.615 44.8049 321.175 44.2817 321.875 43.9034C322.575 43.5251 323.348 43.2434 324.193 43.0583C325.046 42.8651 325.904 42.7121 326.765 42.5995C327.892 42.4546 328.805 42.3459 329.506 42.2735C330.214 42.193 330.729 42.0602 331.051 41.875C331.381 41.6899 331.546 41.3679 331.546 40.9091V40.8125C331.546 39.6212 331.22 38.6956 330.568 38.0355C329.924 37.3755 328.946 37.0455 327.634 37.0455C326.274 37.0455 325.207 37.3433 324.435 37.9389C323.662 38.5346 323.119 39.1705 322.805 39.8466L320.1 38.8807C320.583 37.7538 321.227 36.8764 322.032 36.2486C322.845 35.6127 323.73 35.17 324.688 34.9205C325.654 34.6629 326.604 34.5341 327.538 34.5341C328.133 34.5341 328.818 34.6066 329.59 34.7514C330.371 34.8883 331.124 35.174 331.848 35.6087C332.581 36.0433 333.188 36.6994 333.671 37.5767C334.154 38.4541 334.396 39.6293 334.396 41.1023V53.321H331.546V50.8097H331.401C331.208 51.2121 330.886 51.6428 330.435 52.1016C329.985 52.5604 329.385 52.9508 328.636 53.2727C327.888 53.5947 326.974 53.7557 325.896 53.7557ZM326.33 51.196C327.457 51.196 328.407 50.9747 329.18 50.532C329.961 50.0893 330.548 49.5178 330.943 48.8175C331.345 48.1172 331.546 47.3807 331.546 46.608V44C331.425 44.1449 331.16 44.2777 330.749 44.3985C330.347 44.5111 329.88 44.6118 329.349 44.7003C328.826 44.7808 328.314 44.8532 327.815 44.9176C327.324 44.974 326.926 45.0223 326.62 45.0625C325.88 45.1591 325.187 45.3161 324.543 45.5334C323.908 45.7427 323.392 46.0606 322.998 46.4872C322.612 46.9058 322.418 47.4773 322.418 48.2017C322.418 49.1918 322.785 49.9404 323.517 50.4475C324.258 50.9465 325.195 51.196 326.33 51.196ZM343.846 49.9404L343.653 51.2443C343.516 52.162 343.307 53.144 343.025 54.1904C342.752 55.2368 342.466 56.2228 342.168 57.1485C341.87 58.0741 341.625 58.8106 341.432 59.358H339.258C339.363 58.8428 339.5 58.1627 339.669 57.3175C339.838 56.4723 340.007 55.5265 340.176 54.4801C340.353 53.4418 340.498 52.3793 340.611 51.2926L340.756 49.9404H343.846ZM159.095 69.5938H162.09V87.2699C162.09 88.8476 161.8 90.1878 161.22 91.2905C160.641 92.3933 159.824 93.2304 158.769 93.8019C157.715 94.3734 156.471 94.6591 155.038 94.6591C153.686 94.6591 152.483 94.4136 151.428 93.9226C150.374 93.4236 149.545 92.7152 148.941 91.7976C148.337 90.88 148.036 89.7893 148.036 88.5256H150.982C150.982 89.2259 151.155 89.8376 151.501 90.3608C151.855 90.876 152.338 91.2784 152.95 91.5682C153.561 91.858 154.258 92.0029 155.038 92.0029C155.9 92.0029 156.632 91.8218 157.236 91.4595C157.84 91.0973 158.298 90.5661 158.612 89.8658C158.934 89.1575 159.095 88.2922 159.095 87.2699V69.5938ZM175.479 94.7074C173.693 94.7074 172.151 94.313 170.855 93.5242C169.567 92.7273 168.573 91.6165 167.873 90.1918C167.181 88.759 166.835 87.0928 166.835 85.1932C166.835 83.2936 167.181 81.6193 167.873 80.1705C168.573 78.7136 169.547 77.5786 170.795 76.7656C172.05 75.9446 173.515 75.5341 175.19 75.5341C176.156 75.5341 177.109 75.6951 178.051 76.0171C178.993 76.339 179.85 76.8622 180.623 77.5867C181.396 78.3031 182.011 79.2529 182.47 80.4361C182.929 81.6193 183.158 83.0763 183.158 84.8068V86.0142H168.863V83.5512H180.261C180.261 82.5048 180.051 81.571 179.633 80.75C179.222 79.929 178.635 79.281 177.87 78.8061C177.113 78.3312 176.22 78.0938 175.19 78.0938C174.055 78.0938 173.073 78.3755 172.244 78.9389C171.423 79.4943 170.791 80.2188 170.348 81.1122C169.905 82.0057 169.684 82.9636 169.684 83.9858V85.6279C169.684 87.0284 169.925 88.2157 170.408 89.1897C170.899 90.1556 171.58 90.8921 172.449 91.3992C173.318 91.8982 174.328 92.1477 175.479 92.1477C176.228 92.1477 176.904 92.0431 177.508 91.8338C178.12 91.6165 178.647 91.2945 179.09 90.8679C179.532 90.4333 179.874 89.894 180.116 89.25L182.869 90.0227C182.579 90.9565 182.092 91.7775 181.408 92.4858C180.724 93.1861 179.878 93.7335 178.872 94.1279C177.866 94.5142 176.735 94.7074 175.479 94.7074ZM194.496 94.7074C192.95 94.7074 191.586 94.317 190.403 93.5362C189.22 92.7474 188.294 91.6366 187.626 90.2039C186.958 88.763 186.624 87.0606 186.624 85.0966C186.624 83.1487 186.958 81.4584 187.626 80.0256C188.294 78.5928 189.224 77.4861 190.415 76.7053C191.606 75.9245 192.983 75.5341 194.544 75.5341C195.751 75.5341 196.705 75.7353 197.406 76.1378C198.114 76.5322 198.653 76.983 199.024 77.4901C199.402 77.9891 199.696 78.3996 199.905 78.7216H200.146V69.5938H202.996V94.321H200.243V91.4716H199.905C199.696 91.8097 199.398 92.2363 199.011 92.7514C198.625 93.2585 198.074 93.7133 197.357 94.1158C196.641 94.5102 195.687 94.7074 194.496 94.7074ZM194.882 92.1477C196.025 92.1477 196.991 91.8499 197.78 91.2543C198.569 90.6506 199.168 89.8175 199.579 88.755C199.989 87.6844 200.195 86.4489 200.195 85.0483C200.195 83.6638 199.993 82.4524 199.591 81.4141C199.189 80.3677 198.593 79.5547 197.804 78.9752C197.015 78.3876 196.041 78.0938 194.882 78.0938C193.675 78.0938 192.669 78.4037 191.864 79.0235C191.067 79.6352 190.467 80.4683 190.065 81.5227C189.67 82.5692 189.473 83.7443 189.473 85.0483C189.473 86.3684 189.674 87.5677 190.077 88.6463C190.487 89.7169 191.091 90.5701 191.888 91.206C192.693 91.8338 193.691 92.1477 194.882 92.1477ZM215.613 94.7074C214.068 94.7074 212.703 94.317 211.52 93.5362C210.337 92.7474 209.411 91.6366 208.743 90.2039C208.075 88.763 207.741 87.0606 207.741 85.0966C207.741 83.1487 208.075 81.4584 208.743 80.0256C209.411 78.5928 210.341 77.4861 211.532 76.7053C212.723 75.9245 214.1 75.5341 215.661 75.5341C216.869 75.5341 217.823 75.7353 218.523 76.1378C219.231 76.5322 219.77 76.983 220.141 77.4901C220.519 77.9891 220.813 78.3996 221.022 78.7216H221.264V69.5938H224.113V94.321H221.36V91.4716H221.022C220.813 91.8097 220.515 92.2363 220.129 92.7514C219.742 93.2585 219.191 93.7133 218.474 94.1158C217.758 94.5102 216.804 94.7074 215.613 94.7074ZM215.999 92.1477C217.142 92.1477 218.108 91.8499 218.897 91.2543C219.686 90.6506 220.286 89.8175 220.696 88.755C221.107 87.6844 221.312 86.4489 221.312 85.0483C221.312 83.6638 221.111 82.4524 220.708 81.4141C220.306 80.3677 219.71 79.5547 218.921 78.9752C218.132 78.3876 217.158 78.0938 215.999 78.0938C214.792 78.0938 213.786 78.4037 212.981 79.0235C212.184 79.6352 211.584 80.4683 211.182 81.5227C210.787 82.5692 210.59 83.7443 210.59 85.0483C210.59 86.3684 210.791 87.5677 211.194 88.6463C211.604 89.7169 212.208 90.5701 213.005 91.206C213.81 91.8338 214.808 92.1477 215.999 92.1477ZM235.185 94.7557C234.01 94.7557 232.943 94.5343 231.985 94.0916C231.027 93.6409 230.267 92.9929 229.703 92.1477C229.14 91.2945 228.858 90.2642 228.858 89.0568C228.858 87.9943 229.067 87.1331 229.486 86.473C229.904 85.8049 230.464 85.2817 231.164 84.9034C231.864 84.5251 232.637 84.2434 233.482 84.0583C234.336 83.8651 235.193 83.7121 236.054 83.5995C237.181 83.4546 238.095 83.3459 238.795 83.2735C239.503 83.193 240.018 83.0602 240.34 82.875C240.67 82.6899 240.835 82.3679 240.835 81.9091V81.8125C240.835 80.6212 240.509 79.6956 239.857 79.0355C239.213 78.3755 238.235 78.0455 236.923 78.0455C235.563 78.0455 234.497 78.3433 233.724 78.9389C232.951 79.5346 232.408 80.1705 232.094 80.8466L229.389 79.8807C229.872 78.7538 230.516 77.8764 231.321 77.2486C232.134 76.6127 233.019 76.17 233.977 75.9205C234.943 75.6629 235.893 75.5341 236.827 75.5341C237.422 75.5341 238.107 75.6066 238.879 75.7514C239.66 75.8883 240.413 76.174 241.137 76.6087C241.87 77.0433 242.477 77.6994 242.96 78.5767C243.443 79.4541 243.685 80.6293 243.685 82.1023V94.321H240.835V91.8097H240.69C240.497 92.2121 240.175 92.6428 239.724 93.1016C239.274 93.5604 238.674 93.9508 237.925 94.2727C237.177 94.5947 236.263 94.7557 235.185 94.7557ZM235.619 92.196C236.746 92.196 237.696 91.9747 238.469 91.532C239.25 91.0893 239.837 90.5178 240.232 89.8175C240.634 89.1172 240.835 88.3807 240.835 87.608V85C240.715 85.1449 240.449 85.2777 240.038 85.3985C239.636 85.5111 239.169 85.6118 238.638 85.7003C238.115 85.7808 237.604 85.8532 237.104 85.9176C236.613 85.974 236.215 86.0223 235.909 86.0625C235.169 86.1591 234.476 86.3161 233.832 86.5334C233.197 86.7427 232.681 87.0606 232.287 87.4872C231.901 87.9058 231.707 88.4773 231.707 89.2017C231.707 90.1918 232.074 90.9404 232.806 91.4475C233.547 91.9465 234.484 92.196 235.619 92.196ZM251.735 83.1648V94.321H248.886V69.5938H251.735V78.6733H251.976C252.411 77.7155 253.063 76.9548 253.932 76.3914C254.81 75.8199 255.977 75.5341 257.434 75.5341C258.698 75.5341 259.804 75.7877 260.754 76.2948C261.704 76.7938 262.44 77.5625 262.964 78.6009C263.495 79.6312 263.761 80.9432 263.761 82.537V94.321H260.911V82.7301C260.911 81.2571 260.529 80.1182 259.764 79.3132C259.007 78.5003 257.957 78.0938 256.613 78.0938C255.679 78.0938 254.842 78.291 254.101 78.6854C253.369 79.0798 252.789 79.6553 252.363 80.412C251.944 81.1686 251.735 82.0862 251.735 83.1648ZM271.05 94.5142C270.454 94.5142 269.943 94.3009 269.517 93.8743C269.09 93.4477 268.877 92.9366 268.877 92.3409C268.877 91.7453 269.09 91.2342 269.517 90.8076C269.943 90.3809 270.454 90.1676 271.05 90.1676C271.646 90.1676 272.157 90.3809 272.584 90.8076C273.01 91.2342 273.223 91.7453 273.223 92.3409C273.223 92.7353 273.123 93.0976 272.922 93.4276C272.728 93.7576 272.467 94.0232 272.137 94.2245C271.815 94.4176 271.453 94.5142 271.05 94.5142Z" fill="#F5F5F5"/>
<circle cx="47.7367" cy="58.5563" r="47.7367" fill="white"/>
<path d="M47.7814 31.4601C37.283 31.4601 31.0146 38.0226 31.0146 49.0138C31.0146 55.2687 39.3257 69.7196 47.7784 81.2573C56.1805 69.6807 64.5482 55.409 64.5482 49.0138C64.5482 38.0226 58.2799 31.4601 47.7814 31.4601ZM47.7635 56.5349C43.6961 56.5349 40.3992 53.238 40.3992 49.1705C40.3992 45.1032 43.6961 41.8062 47.7635 41.8062C51.8309 41.8062 55.1278 45.1032 55.1278 49.1705C55.1278 53.238 51.8309 56.5349 47.7635 56.5349Z" fill="#EE6F22"/>
<path d="M47.7814 10.5557C21.3926 10.5557 0 31.9483 0 58.3371C0 84.7258 21.3926 106.118 47.7814 106.118C74.1702 106.118 95.5628 84.7258 95.5628 58.3371C95.5628 31.9483 74.1702 10.5557 47.7814 10.5557ZM50.5796 87.5136L47.7814 91.1868L44.9996 87.5136C42.9525 84.8378 25.0419 60.9262 25.0419 49.0137C25.0419 34.7226 33.9621 25.4874 47.7814 25.4874C61.6007 25.4874 70.5209 34.7226 70.5209 49.0137C70.5209 60.9083 52.6088 84.8199 50.5796 87.5136Z" fill="#EE6F22"/>
<line x1="785.235" y1="7.80554" x2="785.235" y2="124.42" stroke="white"/>
<defs>
<filter id="filter0_d_2_7535" x="1167.48" y="10.5" width="431.885" height="87.4091" filterUnits="userSpaceOnUse" color-interpolation-filters="sRGB">
<feFlood flood-opacity="0" result="BackgroundImageFix"/>
<feColorMatrix in="SourceAlpha" type="matrix" values="0 0 0 0 0 0 0 0 0 0 0 0 0 0 0 0 0 0 127 0" result="hardAlpha"/>
<feOffset dx="3" dy="-1"/>
<feGaussianBlur stdDeviation="1.25"/>
<feComposite in2="hardAlpha" operator="out"/>
<feColorMatrix type="matrix" values="0 0 0 0 0 0 0 0 0 0 0 0 0 0 0 0 0 0 0.290196 0"/>
<feBlend mode="normal" in2="BackgroundImageFix" result="effect1_dropShadow_2_7535"/>
<feBlend mode="normal" in="SourceGraphic" in2="effect1_dropShadow_2_7535" result="shape"/>
</filter>
</defs>
</svg>
